<?xml version="1.0" standalone="no"?>
<!DOCTYPE svg PUBLIC "-//W3C//DTD SVG 20010904//EN"
 "http://www.w3.org/TR/2001/REC-SVG-20010904/DTD/svg10.dtd">
<svg version="1.0" xmlns="http://www.w3.org/2000/svg"
 width="300.000000pt" height="72.000000pt" viewBox="0 0 300.000000 72.000000"
 preserveAspectRatio="xMidYMid meet">

<g transform="translate(0.000000,72.000000) scale(0.100000,-0.100000)"
fill="#000000" stroke="none">
<path d="M2336 695 c-43 -43 -20 -105 39 -105 57 0 85 60 45 100 -24 24 -63
26 -84 5z"/>
<path d="M2608 650 c-236 -41 -347 -324 -201 -514 37 -48 139 -116 173 -116
10 1 9 4 -5 12 -39 21 -87 74 -113 123 -59 113 -23 267 82 346 57 43 104 59
178 59 80 0 144 -25 197 -79 25 -25 51 -55 58 -66 7 -11 5 3 -4 30 -23 70
-119 166 -188 188 -68 21 -121 27 -177 17z"/>
<path d="M210 610 l0 -40 -80 0 -80 0 0 30 c0 17 -4 30 -9 30 -5 0 -16 3 -25
6 -14 5 -16 -10 -16 -135 l0 -141 25 0 c23 0 25 4 25 40 l0 40 80 0 80 0 0
-40 c0 -36 3 -40 25 -40 l25 0 0 145 0 145 -25 0 c-22 0 -25 -4 -25 -40z m-2
-102 c3 -16 -6 -18 -77 -18 -75 0 -81 2 -81 20 0 19 5 21 77 18 65 -3 78 -6
81 -20z"/>
<path d="M392 534 l3 -116 33 -29 c26 -23 42 -29 78 -29 55 0 96 20 112 55 7
15 12 71 12 130 l0 105 -121 0 -121 0 4 -116z m196 -16 c-4 -69 -8 -84 -28
-100 -30 -25 -75 -23 -100 4 -17 18 -20 35 -20 100 l0 78 76 0 77 0 -5 -82z"/>
<path d="M482 458 c7 -20 54 -22 61 -4 5 13 -1 16 -29 16 -24 0 -34 -4 -32
-12z"/>
<path d="M770 505 c0 -138 1 -145 20 -145 19 0 20 7 20 100 0 55 4 100 9 100
4 0 46 -45 92 -100 61 -73 90 -100 106 -100 23 0 23 1 23 145 l0 145 -135 0
-135 0 0 -145z m220 23 l-1 -83 -30 35 c-62 71 -99 117 -99 124 0 3 29 6 65 6
l65 0 0 -82z"/>
<path d="M1140 630 c0 -17 7 -20 50 -20 l50 0 0 -125 0 -125 25 0 25 0 0 125
0 125 50 0 c43 0 50 3 50 20 0 19 -7 20 -125 20 -118 0 -125 -1 -125 -20z"/>
<path d="M1500 505 l0 -145 108 0 c101 0 108 1 108 20 0 18 -7 20 -83 20 -76
0 -83 2 -83 20 0 17 8 19 83 22 74 3 82 5 82 23 0 18 -8 20 -83 23 -72 2 -83
5 -80 20 3 14 18 18 83 22 62 4 80 8 80 20 0 12 -17 16 -82 18 -75 3 -83 5
-83 22 0 18 7 20 83 20 76 0 83 2 83 20 0 19 -7 20 -108 20 l-108 0 0 -145z"/>
<path d="M1850 505 l0 -145 24 0 c23 0 25 4 28 53 l3 52 38 3 c37 3 38 2 63
-52 21 -46 30 -56 50 -56 29 0 29 -1 2 62 l-22 51 27 19 c21 15 27 28 27 58 0
21 -3 46 -6 55 -12 30 -60 45 -149 45 l-85 0 0 -145z m73 93 c3 -7 12 -30 21
-50 l16 -38 -30 0 c-29 0 -30 1 -30 50 0 47 11 66 23 38z m101 -1 c19 -14 19
-68 0 -74 -10 -3 -44 57 -44 77 0 14 23 12 44 -3z"/>
<path d="M2791 497 c51 -34 84 -100 83 -167 -3 -195 -247 -276 -373 -123 l-31
37 10 -34 c15 -54 61 -112 115 -145 43 -27 57 -30 124 -30 58 0 86 6 117 22
172 91 180 331 14 431 -64 38 -114 46 -59 9z"/>
<path d="M2720 270 c-16 -29 -3 -59 27 -66 46 -12 77 52 39 78 -21 14 -55 8
-66 -12z"/>
<path d="M102 236 c-14 -32 -16 -47 -2 -26 9 13 11 13 20 0 5 -8 10 -23 10
-32 0 -9 5 -20 10 -23 6 -3 10 -15 10 -26 0 -10 7 -19 15 -19 20 0 19 3 -18
84 -32 69 -32 69 -45 42z"/>
<path d="M920 235 c-6 -35 3 -135 10 -120 3 6 3 42 0 80 -3 47 -7 60 -10 40z"/>
<path d="M1639 187 c-2 -48 0 -77 6 -77 6 0 9 22 7 52 -5 98 -8 103 -13 25z"/>
<path d="M281 235 c-7 -66 -5 -125 4 -125 9 0 10 72 1 125 l-3 20 -2 -20z"/>
<path d="M648 224 c-12 -11 -9 -102 3 -109 6 -4 11 -5 12 -4 6 11 -9 120 -15
113z"/>
<path d="M1148 224 c-12 -11 -9 -102 3 -109 6 -4 11 -5 12 -4 6 11 -9 120 -15
113z"/>
<path d="M349 161 c-3 -30 0 -51 6 -51 10 0 12 86 2 96 -3 3 -7 -17 -8 -45z"/>
<path d="M385 200 c3 -5 8 -10 11 -10 2 0 4 5 4 10 0 6 -5 10 -11 10 -5 0 -7
-4 -4 -10z"/>
<path d="M470 189 c7 -11 14 -18 17 -15 8 8 -5 36 -17 36 -7 0 -7 -6 0 -21z"/>
<path d="M520 160 c0 -27 5 -50 10 -50 6 0 10 23 10 50 0 28 -4 50 -10 50 -5
0 -10 -22 -10 -50z"/>
<path d="M568 203 c7 -3 12 -23 12 -49 0 -24 5 -44 10 -44 11 0 14 59 4 84 -3
9 -14 16 -23 15 -10 0 -11 -2 -3 -6z"/>
<path d="M752 190 c14 -22 24 -19 15 5 -4 8 -11 15 -17 15 -6 0 -6 -7 2 -20z"/>
<path d="M977 203 c-4 -3 -7 -11 -7 -17 0 -6 5 -5 12 2 6 6 9 14 7 17 -3 3 -9
2 -12 -2z"/>
<path d="M1025 164 c1 -26 6 -49 11 -51 11 -4 6 78 -6 91 -4 4 -7 -14 -5 -40z"/>
<path d="M1252 190 c14 -22 24 -19 15 5 -4 8 -11 15 -17 15 -6 0 -6 -7 2 -20z"/>
<path d="M1350 195 c7 -9 15 -13 17 -11 7 7 -7 26 -19 26 -6 0 -6 -6 2 -15z"/>
<path d="M1400 160 c0 -27 5 -50 10 -50 6 0 10 23 10 50 0 28 -4 50 -10 50 -5
0 -10 -22 -10 -50z"/>
<path d="M1448 203 c7 -3 12 -23 12 -49 0 -24 5 -44 10 -44 11 0 14 59 4 84
-3 9 -14 16 -23 15 -10 0 -11 -2 -3 -6z"/>
<path d="M1575 193 c10 -10 15 -27 13 -44 -3 -15 -1 -26 4 -23 22 14 1 84 -25
84 -5 0 -1 -7 8 -17z"/>
<path d="M1756 185 c9 -15 13 -33 9 -47 -5 -18 -4 -20 4 -8 14 20 14 53 -1 68
-21 21 -29 13 -12 -13z"/>
<path d="M1817 203 c-9 -9 -9 -41 1 -46 4 -3 7 8 7 24 0 16 0 29 -1 29 0 0 -4
-3 -7 -7z"/>
<path d="M1858 178 c3 -21 7 -26 13 -17 13 20 11 36 -4 42 -10 4 -12 -3 -9
-25z"/>
<path d="M1919 162 c-2 -32 0 -52 6 -52 7 0 9 16 7 38 -6 65 -8 68 -13 14z"/>
<path d="M1975 199 c-4 -6 -5 -12 -2 -15 2 -3 7 2 10 11 7 17 1 20 -8 4z"/>
<path d="M2022 166 c2 -27 8 -51 13 -53 13 -4 7 78 -7 92 -6 6 -8 -8 -6 -39z"/>
<path d="M418 183 c-3 -13 -4 -32 -1 -43 6 -24 41 -36 57 -20 8 8 7 10 -5 5
-20 -8 -36 12 -41 50 -3 27 -4 28 -10 8z"/>
<path d="M707 193 c-11 -11 -8 -58 5 -71 15 -15 45 -15 54 0 4 7 3 8 -4 4 -6
-4 -21 -2 -33 4 -16 9 -20 19 -17 41 5 31 5 32 -5 22z"/>
<path d="M854 173 c-8 -30 5 -56 30 -61 15 -3 14 0 -4 18 -15 15 -20 29 -16
46 4 13 4 24 1 24 -2 0 -8 -12 -11 -27z"/>
<path d="M1207 193 c-11 -11 -8 -58 5 -71 15 -15 45 -15 54 0 4 7 3 8 -4 4 -6
-4 -21 -2 -33 4 -16 9 -20 19 -17 41 5 31 5 32 -5 22z"/>
<path d="M1297 183 c-5 -13 -6 -32 -2 -42 7 -24 43 -37 59 -21 8 8 7 10 -5 5
-20 -8 -36 12 -41 50 -3 28 -4 29 -11 8z"/>
<path d="M1515 180 c-8 -26 2 -57 22 -64 13 -5 14 -4 3 9 -7 9 -13 29 -12 45
1 35 -4 38 -13 10z"/>
<path d="M1697 193 c-11 -11 -8 -58 5 -71 20 -20 32 -13 13 8 -12 13 -15 27
-11 45 6 25 5 30 -7 18z"/>
<path d="M974 145 c-7 -17 3 -35 18 -35 7 0 6 5 -2 15 -6 8 -9 19 -5 25 3 5 4
10 0 10 -3 0 -8 -7 -11 -15z"/>
<path d="M1977 153 c-14 -13 -7 -43 11 -43 14 0 14 2 3 9 -8 5 -11 16 -8 25 7
17 5 20 -6 9z"/>
<path d="M56 134 c-8 -20 -8 -24 2 -24 4 0 8 9 9 20 2 24 -3 26 -11 4z"/>
<path d="M1810 124 c0 -10 13 -14 42 -14 48 0 45 8 -6 20 -28 6 -36 5 -36 -6z"/>
<path d="M1802 90 c3 -9 18 -16 39 -17 24 -1 26 0 9 4 -14 3 -31 10 -39 16
-11 10 -13 9 -9 -3z"/>
</g>
</svg>
